<svg width="300" height="225" viewBox="0 0 300 225" fill="none" xmlns="http://www.w3.org/2000/svg">
<path d="M128.813 188.58C128.813 188.58 131.175 190.792 133.725 189.742C136.275 188.692 138.15 190.77 136.268 192.517C134.385 194.265 127.268 194.347 127.268 194.347L125.16 189.75L128.813 188.58Z" fill="#5F6265"/>
<path d="M89.0626 187.553C89.0626 187.553 87.9001 190.553 89.8126 192.548C91.7251 194.543 90.5626 197.048 88.2001 195.945C85.8376 194.843 83.1376 188.25 83.1376 188.25L86.5951 184.583L89.0626 187.553Z" fill="#5F6265"/>
<path opacity="0.3" d="M100.268 204.15C138.417 204.15 169.343 199.761 169.343 194.348C169.343 188.934 138.417 184.545 100.268 184.545C62.1186 184.545 31.1926 188.934 31.1926 194.348C31.1926 199.761 62.1186 204.15 100.268 204.15Z" fill="#CAC5C5"/>
<path d="M253.455 18.96H135.622V154.8H253.455V18.96Z" fill="#CAC5C5"/>
<path d="M238.192 47.3025H153.367V72.3H238.192V47.3025Z" fill="#2D3047"/>
<path d="M144.24 26.385H154.95" stroke="#877676" stroke-width="2" stroke-miterlimit="10"/>
<path d="M144.24 30.5699H154.95" stroke="#877676" stroke-width="2" stroke-miterlimit="10"/>
<path d="M144.24 34.755H154.95" stroke="#877676" stroke-width="2" stroke-miterlimit="10"/>
<path d="M238.192 26.385H169.343V35.49H238.192V26.385Z" fill="white"/>
<path d="M168.802 68.91C173.769 68.91 177.795 64.884 177.795 59.9175C177.795 54.9511 173.769 50.925 168.802 50.925C163.836 50.925 159.81 54.9511 159.81 59.9175C159.81 64.884 163.836 68.91 168.802 68.91Z" fill="#1B998B"/>
<path d="M165.488 60.0075L167.775 63.345L172.53 57.1875" stroke="white" stroke-width="4" stroke-linecap="round" stroke-linejoin="round"/>
<path opacity="0.17" d="M220.32 54.3151H184.583V58.2751H220.32V54.3151Z" fill="white"/>
<path opacity="0.17" d="M206.978 62.235H184.583V66.195H206.978V62.235Z" fill="white"/>
<path d="M238.192 79.5675H153.367V104.565H238.192V79.5675Z" fill="#2D3047"/>
<path opacity="0.17" d="M168.802 101.168C173.769 101.168 177.795 97.1414 177.795 92.175C177.795 87.2086 173.769 83.1825 168.802 83.1825C163.836 83.1825 159.81 87.2086 159.81 92.175C159.81 97.1414 163.836 101.168 168.802 101.168Z" fill="white"/>
<path opacity="0.17" d="M220.32 86.5801H184.583V90.5401H220.32V86.5801Z" fill="white"/>
<path opacity="0.17" d="M206.978 94.5H184.583V98.46H206.978V94.5Z" fill="white"/>
<path d="M238.192 111.833H153.367V136.83H238.192V111.833Z" fill="#2D3047"/>
<path opacity="0.17" d="M168.802 133.433C173.769 133.433 177.795 129.406 177.795 124.44C177.795 119.474 173.769 115.448 168.802 115.448C163.836 115.448 159.81 119.474 159.81 124.44C159.81 129.406 163.836 133.433 168.802 133.433Z" fill="white"/>
<path opacity="0.17" d="M220.32 118.845H184.583V122.805H220.32V118.845Z" fill="white"/>
<path opacity="0.17" d="M206.978 126.758H184.583V130.718H206.978V126.758Z" fill="white"/>
<path d="M82.725 130.777C82.725 130.777 80.25 140.64 84.57 145.5C88.89 150.36 95.55 173.332 84.57 184.822L88.9125 188.91C88.9125 188.91 107.925 179.205 102.503 144.225L116.078 130.792L82.725 130.777Z" fill="#2D3047"/>
<path opacity="0.09" d="M162.195 88.3575C162.195 88.3575 168.855 99.54 159.15 102.825C159.15 102.825 156.15 136.365 135.622 142.238V130.778L151.747 96.4425L162.195 88.3575Z" fill="black"/>
<path d="M116.077 74.64C116.077 74.64 129.51 78.0675 129.577 89.19C129.645 100.313 123.615 119.775 132.255 121.365C140.895 122.955 146.062 98.9175 146.062 98.9175L152.25 101.4C152.25 101.4 145.695 142.463 123.052 135.69C100.41 128.918 116.077 74.64 116.077 74.64Z" fill="#5F6265"/>
<path opacity="0.44" d="M116.077 74.64C116.077 74.64 129.51 78.0675 129.577 89.19C129.645 100.313 123.615 119.775 132.255 121.365C140.895 122.955 146.062 98.9175 146.062 98.9175L152.25 101.4C152.25 101.4 145.695 142.463 123.052 135.69C100.41 128.918 116.077 74.64 116.077 74.64Z" fill="white"/>
<path d="M103.995 56.3774L99.9076 70.8074L108.015 72.4949L107.738 61.3199L103.995 56.3774Z" fill="#F4A28C"/>
<path opacity="0.31" d="M107.902 63.75C106.91 63.3687 106.05 62.7068 105.427 61.845C105.427 61.845 105.225 64.5825 107.895 67.6275L107.902 63.75Z" fill="#CE8172"/>
<path d="M99.9075 70.8075L104.715 71.805C104.715 71.805 126.728 74.1825 127.62 86.6025C128.513 99.0225 116.078 130.778 116.078 130.778H82.725C82.725 130.778 56.0026 67.5 99.9075 70.8075Z" fill="#5F6265"/>
<path opacity="0.09" d="M97.02 82.3201C97.02 82.3201 99.7125 90.0826 92.6625 95.1451C85.6125 100.208 89.0475 119.25 96.75 122.355C104.453 125.46 91.9275 132.023 86.58 129.33C81.2325 126.638 80.4825 124.83 80.4825 124.83C80.4825 124.83 75.525 110.49 75 101.333C74.475 92.1751 97.02 82.3201 97.02 82.3201Z" fill="black"/>
<path d="M102.261 121.231L82.7175 116.409L76.282 142.491L95.8259 147.314L102.261 121.231Z" fill="#1B998B"/>
<path opacity="0.09" d="M94.215 133.215C94.215 133.215 95.4675 136.29 91.125 136.927C86.7825 137.565 77.625 136.927 77.625 136.927L79.125 130.777L94.215 133.215Z" fill="black"/>
<path d="M97.0201 82.3201C97.0201 75.4876 90.1051 70.8226 83.6101 72.9526C77.9626 74.8051 71.0776 78.2026 66.8926 84.5176C58.8451 96.5851 40.4626 131.85 87.1426 133.215L88.5151 128.018C88.5151 128.018 60.5101 120.27 72.8701 103.883C82.5001 91.1401 97.0501 91.9951 97.0201 82.3201Z" fill="#5F6265"/>
<path opacity="0.44" d="M97.0201 82.3201C97.0201 75.4876 90.1051 70.8226 83.6101 72.9526C77.9626 74.8051 71.0776 78.2026 66.8926 84.5176C58.8451 96.5851 40.4626 131.85 87.1426 133.215L88.5151 128.018C88.5151 128.018 60.5101 120.27 72.8701 103.883C82.5001 91.1401 97.0501 91.9951 97.0201 82.3201Z" fill="white"/>
<path d="M147.532 99.5024C147.532 99.5024 147.877 93.555 150.262 91.8675C152.647 90.18 152.25 94.455 152.25 94.455C152.25 94.455 154.635 91.6725 156.622 92.955C158.61 94.2375 152.25 101.4 152.25 101.4L147.532 99.5024Z" fill="#F4A28C"/>
<path d="M112.395 56.805C112.395 56.805 111.99 61.3575 110.7 64.215C110.575 64.4904 110.396 64.7384 110.175 64.9448C109.953 65.1512 109.694 65.3119 109.41 65.4178C109.127 65.5237 108.825 65.5726 108.523 65.5618C108.22 65.5511 107.923 65.4808 107.647 65.355C106.737 65.0013 105.948 64.3933 105.373 63.6034C104.799 62.8135 104.463 61.8751 104.407 60.9L103.762 56.7225C103.72 55.8729 103.942 55.0312 104.399 54.3136C104.856 53.5961 105.525 53.0383 106.312 52.7175C109.177 51.3375 112.785 54.0375 112.395 56.805Z" fill="#F4A28C"/>
<path d="M111.99 59.6625L112.935 61.62C112.984 61.7309 113.005 61.8519 112.996 61.9727C112.988 62.0935 112.951 62.2105 112.887 62.3137C112.824 62.4169 112.736 62.5032 112.632 62.5652C112.528 62.6273 112.411 62.6632 112.29 62.67H110.505L111.99 59.6625Z" fill="#F4A28C"/>
<path d="M153.202 97.35C158.169 97.35 162.195 93.3239 162.195 88.3575C162.195 83.3911 158.169 79.365 153.202 79.365C148.236 79.365 144.21 83.3911 144.21 88.3575C144.21 93.3239 148.236 97.35 153.202 97.35Z" fill="#1B998B"/>
<path d="M149.895 88.4475L152.183 91.7925L156.93 85.635" stroke="white" stroke-width="4" stroke-linecap="round" stroke-linejoin="round"/>
<path d="M116.078 130.777L130.02 188.895L123.053 189.915C123.053 189.915 109.11 150.082 99.9076 141.915L116.078 130.777Z" fill="#2D3047"/>
<path d="M88.2975 128.738C88.2975 128.738 93.2775 127.943 94.9425 131.385C96.6075 134.828 87.12 133.215 87.12 133.215L88.2975 128.738Z" fill="#F4A28C"/>
<path opacity="0.58" d="M51.5176 185.88C51.5176 185.88 45.9301 184.38 44.7151 179.13C44.7151 179.13 53.3701 177.375 53.6176 186.315L51.5176 185.88Z" fill="#5F6265"/>
<path opacity="0.73" d="M52.2001 185.333C52.2001 185.333 48.3001 179.16 51.7351 173.385C51.7351 173.385 58.3126 177.57 55.3876 185.34L52.2001 185.333Z" fill="#5F6265"/>
<path d="M53.2051 185.332C53.2051 185.332 55.2676 178.815 61.5076 177.585C61.5076 177.585 62.6701 181.815 57.4651 185.347L53.2051 185.332Z" fill="#5F6265"/>
<path d="M49.155 185.19L50.2875 192.937L57.42 192.967L58.47 185.227L49.155 185.19Z" fill="#2D3047"/>
<path d="M102.637 61.1774L105.427 60.495L107.122 59.6624C107.122 59.6624 108.345 59.5874 107.872 56.6174C107.872 56.6174 113.872 58.6874 114.622 55.1174C115.485 51.2399 111.015 49.5149 107.872 49.8674C106.95 49.9791 106.075 50.3416 105.344 50.9154C104.613 51.4893 104.053 52.2526 103.725 53.1224C103.725 53.1224 98.775 52.3274 102.637 61.1774Z" fill="#2D3047"/>
<path d="M106.92 59.805C106.92 59.805 107.198 58.065 105.87 57.9675C104.543 57.87 104.13 60.3825 105.87 60.93L106.92 59.805Z" fill="#F4A28C"/>
</svg>
